<svg xmlns="http://www.w3.org/2000/svg" width="192" height="81" fill="none" viewBox="0 0 192 81">
  <path fill="#737373" d="M1.118 20.882c-.275 0-.47-.055-.585-.164-.113-.105-.168-.26-.168-.463a1.84 1.84 0 0 1 .036-.377c.024-.1.055-.313.09-.64a110.126 110.126 0 0 1 .363-2.652c.076-.465.146-1.004.21-1.616.064-.61.116-1.24.159-1.889.045-.647.086-1.274.122-1.88.04-.605.074-1.15.105-1.634.03-.487.059-.856.086-1.108.024-.302.11-.573.254-.813.146-.238.451-.359.918-.359.505 0 .842.07 1.012.21.17.136.292.38.368.735.1.503.19.943.272 1.321.082.38.148.745.2 1.099l.736 4.422c.038.18.114.268.227.268.114 0 .184-.088.209-.268l.74-4.422c.06-.354.128-.72.204-1.099.075-.378.165-.818.268-1.321.075-.354.197-.6.368-.736.169-.138.506-.209 1.012-.209.466 0 .764.12.895.36.132.239.224.51.277.812a477.94 477.94 0 0 1 .254 2.629c.057.617.11 1.26.159 1.93.05.666.105 1.31.163 1.934.057.624.11 1.169.16 1.634.063.518.118 1.013.167 1.485a42.266 42.266 0 0 0 .232 1.807 1.29 1.29 0 0 1 .036.304c0 .2-.058.367-.172.5-.113.133-.308.2-.586.2-.352 0-.606-.039-.763-.114-.158-.076-.288-.252-.39-.531-.037-.1-.075-.25-.114-.45a10.593 10.593 0 0 0-.15-.685 10.057 10.057 0 0 1-.104-.668 45.308 45.308 0 0 1-.132-1.176c-.043-.447-.09-.901-.14-1.362a51.66 51.66 0 0 1-.128-1.244 17.01 17.01 0 0 0-.082-.826.844.844 0 0 0-.068-.255c-.03-.069-.058-.104-.081-.104-.064 0-.116.158-.155.472a10.32 10.32 0 0 1-.104.74 74.375 74.375 0 0 1-.432 2.402c-.081.416-.152.784-.208 1.104-.058.32-.1.539-.123.653a.862.862 0 0 1-.486.645c-.27.136-.512.204-.726.204-.213 0-.454-.068-.727-.204a.912.912 0 0 1-.5-.645c-.026-.114-.07-.332-.126-.653-.055-.32-.123-.688-.205-1.104a98.434 98.434 0 0 1-.436-2.402 9.141 9.141 0 0 1-.104-.74c-.036-.314-.086-.472-.15-.472-.025 0-.053.035-.086.104a.884.884 0 0 0-.064.255 99.52 99.52 0 0 1-.213 2.07c-.049.461-.095.915-.14 1.362-.044.449-.087.84-.132 1.176-.044.334-.077.556-.1.668-.053.254-.1.483-.146.685-.043.2-.084.35-.122.45-.089.28-.214.455-.377.531-.164.075-.422.114-.777.114Zm11.459 0c-.24 0-.484-.062-.731-.182-.245-.118-.368-.392-.368-.822v-.236c0-.157.002-.34.01-.55a214.88 214.88 0 0 0 .04-2.248c.006-.562.01-1.089.01-1.579a290.16 290.16 0 0 0-.037-4.613c0-.302-.014-.629-.041-.98a14.502 14.502 0 0 1-.036-1.022c0-.33.043-.63.131-.9.088-.272.283-.414.586-.426a57.947 57.947 0 0 1 1.925.04 87.118 87.118 0 0 0 1.82.037c.24 0 .428.073.564.218.138.143.209.29.209.44 0 .303-.085.53-.255.681-.17.153-.388.257-.653.314a3.669 3.669 0 0 1-.79.086c-.291 0-.563-.002-.818-.01-.252-.005-.45.04-.595.133-.145.094-.217.292-.217.594 0 .176.002.439.009.786.009.345.013.715.013 1.108 0 .39.002.747.01 1.067.005.321.008.551.008.69 0 .276.05.454.15.536.1.081.239.122.418.122.25 0 .518.026.8.077.283.053.53.145.74.277.208.13.313.335.313.613 0 .176-.087.313-.26.409a1.89 1.89 0 0 1-.612.2c-.24.036-.467.058-.681.063-.213.007-.37.01-.473.01a.466.466 0 0 0-.34.158.544.544 0 0 0-.15.386v2.007c0 .327.11.511.332.55.22.036.538.054.953.054.278 0 .581.02.908.06.327.035.61.133.85.29.241.157.362.407.362.749 0 .176-.127.304-.381.386a4.024 4.024 0 0 1-.935.163c-.373.025-.754.049-1.145.073a6.636 6.636 0 0 0-1.03.104 4.396 4.396 0 0 1-.613.087Zm7.92 0a3.157 3.157 0 0 1-1.448-.34 2.96 2.96 0 0 1-1.085-.927 2.213 2.213 0 0 1-.413-1.308c0-.263.05-.447.15-.554a.452.452 0 0 1 .34-.163c.402 0 .718.209.945.626.29.527.826.79 1.607.79.302 0 .579-.068.83-.204.255-.138.382-.328.382-.567a.55.55 0 0 0-.163-.395 1.398 1.398 0 0 0-.29-.25c-.845-.554-1.52-1.09-2.026-1.607-.506-.518-.888-1.013-1.144-1.485-.258-.473-.427-.913-.509-1.321a5.738 5.738 0 0 1-.122-1.108c0-1.65.277-2.871.83-3.665.555-.795 1.329-1.194 2.325-1.194.956 0 1.677.326 2.162.977.487.648.73 1.601.73 2.86a12.446 12.446 0 0 1-.282 2.534c-.102.466-.373.699-.812.699-.29 0-.512-.068-.663-.204-.152-.139-.227-.386-.227-.74a8.812 8.812 0 0 0 .168-1.74c0-.855-.107-1.508-.322-1.957-.212-.447-.463-.672-.754-.672-.326 0-.615.239-.862.713-.245.473-.368 1.175-.368 2.107 0 .303.082.71.245 1.221.166.509.5 1.003 1.004 1.48.401.38.786.693 1.153.94.365.246.69.489.971.727.284.24.511.522.682.85.172.326.258.76.258 1.302 0 .594-.154 1.08-.463 1.458-.309.379-.713.66-1.212.844a4.673 4.673 0 0 1-1.617.273Zm4.898 0c-.263 0-.453-.062-.568-.182a.596.596 0 0 1-.168-.427c0-.111.019-.231.055-.358.039-.1.102-.366.19-.8a749.545 749.545 0 0 0 .718-3.641c.139-.732.274-1.45.404-2.157.133-.705.252-1.346.359-1.925.109-.581.188-1.028.24-1.344.037-.238.083-.563.141-.972a7.66 7.66 0 0 0 .087-.994.75.75 0 0 1 .272-.608c.181-.151.443-.227.785-.227.339 0 .6.076.781.227a.75.75 0 0 1 .277.608c0 .252.028.584.082.994.057.41.106.734.145.972.051.316.13.763.236 1.344.106.579.225 1.22.36 1.925l.403 2.157c.139.73.273 1.41.4 2.043.127.63.237 1.163.331 1.598.093.434.155.7.182.8.036.127.054.247.054.358a.59.59 0 0 1-.172.427c-.113.12-.3.182-.563.182-.354 0-.613-.041-.777-.123-.163-.082-.29-.274-.377-.577a57.672 57.672 0 0 0-.136-.549 3.003 3.003 0 0 0-.131-.418 1.096 1.096 0 0 0-.332-.49c-.158-.139-.412-.209-.763-.209-.354 0-.61.07-.767.209a1.13 1.13 0 0 0-.331.49c-.05.127-.09.267-.123.418a6.5 6.5 0 0 1-.14.55c-.09.302-.214.494-.378.576-.163.082-.422.123-.776.123Zm2.515-3.932c.188 0 .351-.029.49-.087.14-.056.197-.205.173-.445a36.87 36.87 0 0 1-.081-.672 42.766 42.766 0 0 0-.141-1.121l-.16-1.222a14.053 14.053 0 0 0-.149-.98c-.052-.26-.095-.39-.132-.39-.04 0-.085.13-.136.39-.049.257-.099.584-.15.98-.048.398-.102.804-.159 1.222-.058.415-.106.789-.145 1.121l-.073.672c-.024.24.037.389.182.445.145.058.305.087.481.087Zm9.567 3.909c-.366 0-.62-.107-.758-.318-.14-.215-.209-.479-.209-.794v-.237c0-.156.003-.34.01-.549a237.909 237.909 0 0 0 .04-2.184c.006-.518.01-1.022.01-1.512a290.16 290.16 0 0 0-.037-4.613c0-.327-.014-.686-.04-1.076a17.66 17.66 0 0 1-.037-1.117c0-.302.043-.568.131-.795.088-.227.365-.34.831-.34.505 0 .814.09.927.268.114.176.172.389.172.64 0 .379-.013.785-.04 1.221-.026.434-.037.833-.037 1.199l-.018 3.687-.018 2.23c.011.29.018.587.018.89 0 .302.006.617.018.944.011.163.018.35.018.558v.786c0 .315-.047.58-.14.794-.095.211-.375.318-.84.318Zm9.434-4.291c.011.29.018.588.018.89 0 .303.006.618.018.945.012.163.018.35.018.558v.786c0 .315-.047.58-.14.794-.094.211-.375.318-.84.318-.53 0-.934-.09-1.212-.273-.276-.181-.484-.486-.623-.917l-2.002-6.18c-.052-.15-.147-.226-.286-.226-.152 0-.24.094-.263.281v3.024c.011.29.018.588.018.89 0 .303.006.618.018.945.011.163.018.35.018.558v.786c0 .315-.047.58-.14.794-.095.211-.375.318-.84.318-.367 0-.62-.107-.759-.318-.14-.215-.209-.479-.209-.794v-.237c0-.156.003-.34.01-.549a237.909 237.909 0 0 0 .04-2.184c.006-.518.01-1.022.01-1.512a290.16 290.16 0 0 0-.037-4.613c0-.327-.014-.686-.04-1.076a17.586 17.586 0 0 1-.037-1.117c0-.29.043-.55.132-.777.087-.227.346-.346.776-.358h.055c.377 0 .686.017.926.05.238.03.428.215.567.554.039.103.124.34.255.713.132.37.29.833.472 1.389a2160.124 2160.124 0 0 1 1.24 3.714c.214.636.417 1.22.608 1.748.06.152.142.227.245.227.124 0 .186-.095.186-.286 0-.717-.009-1.495-.027-2.334-.018-.838-.034-1.654-.046-2.447 0-.327-.013-.686-.04-1.076a17.66 17.66 0 0 1-.037-1.117c0-.302.043-.568.132-.795.087-.227.364-.34.83-.34.506 0 .815.09.927.268.115.176.173.389.173.64 0 .379-.014.785-.041 1.221a20.92 20.92 0 0 0-.037 1.199l-.036 3.687v2.23Zm4.576 4.314c-.316 0-.577-.062-.785-.182-.21-.118-.314-.392-.314-.822v-.236c0-.157.003-.34.01-.55.005-.208.008-.394.008-.558a121.748 121.748 0 0 0 .041-3.269c0-.745.006-1.519.018-2.325a33.383 33.383 0 0 0-.059-2.479l-.018-.322c0-.35-.054-.596-.163-.736-.107-.138-.276-.223-.509-.254a6.823 6.823 0 0 0-.917-.05c-.376 0-.633-.043-.772-.132-.14-.087-.215-.2-.227-.336a4.897 4.897 0 0 1-.018-.435c0-.242.078-.437.236-.586.157-.151.324-.227.5-.227 1.031 0 2.045.003 3.042.009.995.007 1.885.009 2.67.009.238 0 .426.073.562.218.139.143.21.29.21.44 0 .152-.064.34-.191.568-.125.227-.35.372-.677.436a4.827 4.827 0 0 1-.722.104 5.452 5.452 0 0 0-.508.046c-.24.04-.4.117-.482.231-.081.113-.122.276-.122.49 0 .177-.004.435-.01.777l-.017 1.076c-.007.38-.014.725-.023 1.04-.007.315-.01.542-.01.68l.06 6.258c0 .39-.058.675-.173.853-.112.175-.326.264-.64.264Zm5.426 0c-.24 0-.484-.062-.731-.182-.246-.118-.368-.392-.368-.822v-.236c0-.157.002-.34.009-.55a214.88 214.88 0 0 0 .04-2.248c.006-.562.01-1.089.01-1.579a290.16 290.16 0 0 0-.036-4.613c0-.302-.014-.629-.041-.98a14.502 14.502 0 0 1-.037-1.022c0-.33.043-.63.132-.9.087-.272.283-.414.586-.426a57.947 57.947 0 0 1 1.925.04 87.118 87.118 0 0 0 1.82.037c.239 0 .427.073.564.218.138.143.208.29.208.44 0 .303-.085.53-.254.681a1.39 1.39 0 0 1-.654.314 3.669 3.669 0 0 1-.79.086c-.29 0-.563-.002-.817-.01-.252-.005-.45.04-.595.133-.145.094-.218.292-.218.594 0 .176.003.439.01.786.008.345.013.715.013 1.108 0 .39.002.747.009 1.067.006.321.01.551.01.69 0 .276.05.454.149.536.1.081.238.122.418.122.25 0 .517.026.799.077.284.053.531.145.74.277.209.13.313.335.313.613 0 .176-.086.313-.259.409-.17.094-.374.161-.613.2a5.46 5.46 0 0 1-.68.063c-.213.007-.37.01-.473.01a.466.466 0 0 0-.34.158.544.544 0 0 0-.15.386v2.007c0 .327.11.511.331.55.22.036.538.054.954.054.278 0 .58.02.908.06.327.035.61.133.849.29.242.157.363.407.363.749 0 .176-.127.304-.381.386a4.024 4.024 0 0 1-.936.163c-.372.025-.753.049-1.144.073a6.623 6.623 0 0 0-1.03.104 4.396 4.396 0 0 1-.613.087Zm10.531.018a.92.92 0 0 1-.304-.041 1.742 1.742 0 0 1-.645-.422 4.831 4.831 0 0 1-.604-.822 21.48 21.48 0 0 1-.785-1.417 7.186 7.186 0 0 1-.595-1.553c-.025-.127-.087-.19-.186-.19-.064 0-.108.038-.132.113-.052.164-.077.493-.077.985v.377c0 .14.005.298.018.473.011.163.018.35.018.558v.786c0 .315-.048.58-.14.794-.095.211-.375.318-.84.318-.367 0-.62-.107-.759-.318-.14-.215-.209-.479-.209-.794v-.237c0-.156.002-.34.01-.549a231.83 231.83 0 0 0 .04-2.184c.006-.518.01-1.022.01-1.512a290.187 290.187 0 0 0-.037-4.613c0-.302-.014-.629-.041-.98a14.502 14.502 0 0 1-.036-1.022c0-.593.204-.995.613-1.204.41-.208.976-.313 1.693-.313.53 0 .987.136 1.371.409.384.27.705.62.963 1.049.26.43.464.89.613 1.38a9.203 9.203 0 0 1 .418 2.534c0 .717-.089 1.303-.264 1.757-.176.454-.365.776-.567.967l-.427.35c-.134.106-.262.19-.386.254.1.426.234.861.404 1.303.173.442.373.847.6 1.212.287.467.515.813.685 1.04.173.227.296.402.372.522a.74.74 0 0 1 .114.404.458.458 0 0 1-.323.463 1.66 1.66 0 0 1-.585.123Zm-2.534-6.847c.315 0 .566-.198.754-.595.19-.396.286-.922.286-1.576 0-.568-.07-1.082-.209-1.543-.14-.46-.313-.824-.522-1.095-.207-.272-.43-.408-.667-.408-.228 0-.364.111-.41.331-.042.222-.057.566-.044 1.03v2.989c0 .252.06.458.186.622.127.163.336.245.626.245Zm6.73 6.829a3.157 3.157 0 0 1-1.449-.34 2.96 2.96 0 0 1-1.085-.927 2.213 2.213 0 0 1-.413-1.308c0-.263.05-.447.15-.554a.452.452 0 0 1 .34-.163c.402 0 .717.209.944.626.291.527.827.79 1.608.79.302 0 .579-.068.83-.204.255-.138.382-.328.382-.567a.55.55 0 0 0-.163-.395 1.398 1.398 0 0 0-.291-.25c-.844-.554-1.52-1.09-2.025-1.607-.506-.518-.888-1.013-1.144-1.485-.258-.473-.427-.913-.509-1.321a5.746 5.746 0 0 1-.122-1.108c0-1.65.277-2.871.83-3.665.555-.795 1.329-1.194 2.325-1.194.956 0 1.677.326 2.162.977.486.648.73 1.601.73 2.86 0 .418-.026.845-.077 1.28-.048.434-.117.852-.204 1.254-.103.466-.375.699-.813.699-.29 0-.512-.068-.663-.204-.152-.139-.227-.386-.227-.74a8.804 8.804 0 0 0 .168-1.74c0-.855-.108-1.508-.322-1.957-.212-.447-.463-.672-.754-.672-.327 0-.615.239-.862.713-.246.473-.368 1.175-.368 2.107 0 .303.082.71.245 1.221.166.509.5 1.003 1.003 1.48.402.38.787.693 1.154.94.365.246.69.489.971.727.284.24.511.522.681.85.173.326.26.76.26 1.302 0 .594-.155 1.08-.464 1.458-.309.379-.713.66-1.212.844a4.673 4.673 0 0 1-1.617.273Zm5.578 0c-.24 0-.484-.062-.731-.182-.245-.118-.368-.392-.368-.822v-.236c0-.157.002-.34.01-.55a214.88 214.88 0 0 0 .04-2.248c.006-.562.01-1.089.01-1.579a290.16 290.16 0 0 0-.037-4.613c0-.302-.014-.629-.041-.98a14.502 14.502 0 0 1-.036-1.022c0-.33.043-.63.131-.9.088-.272.283-.414.586-.426a57.928 57.928 0 0 1 1.925.04 87.173 87.173 0 0 0 1.821.037c.238 0 .427.073.563.218.139.143.209.29.209.44 0 .303-.085.53-.254.681-.17.153-.389.257-.654.314a3.668 3.668 0 0 1-.79.086c-.29 0-.563-.002-.818-.01-.252-.005-.45.04-.594.133-.146.094-.218.292-.218.594 0 .176.002.439.009.786.009.345.013.715.013 1.108 0 .39.003.747.01 1.067.005.321.009.551.009.69 0 .276.05.454.15.536.1.081.238.122.417.122.251 0 .518.026.8.077.283.053.53.145.74.277.208.13.313.335.313.613 0 .176-.087.313-.26.409a1.89 1.89 0 0 1-.612.2c-.24.036-.467.058-.681.063-.212.007-.37.01-.472.01a.466.466 0 0 0-.341.158.544.544 0 0 0-.15.386v2.007c0 .327.11.511.332.55.22.036.538.054.953.054.278 0 .581.02.908.06.327.035.61.133.85.29.241.157.363.407.363.749 0 .176-.128.304-.382.386a4.024 4.024 0 0 1-.935.163c-.373.025-.754.049-1.144.073-.38.011-.722.046-1.031.104a4.394 4.394 0 0 1-.613.087Zm8.488-.059c-1.02 0-1.818-.609-2.393-1.826-.572-1.216-.858-2.908-.858-5.076 0-1.346.143-2.521.431-3.523.291-1.001.7-1.782 1.23-2.343.53-.563 1.142-.845 1.835-.845a2.33 2.33 0 0 1 1.58.586c.447.39.797.943 1.05 1.657.25.712.376 1.54.376 2.484 0 .581-.321.872-.963.872-.315 0-.539-.073-.672-.218a1.015 1.015 0 0 1-.254-.522c0-.932-.099-1.687-.295-2.266-.194-.581-.454-.872-.78-.872-.344 0-.644.202-.904.604-.258.403-.457.967-.595 1.694-.136.724-.205 1.565-.205 2.524 0 1.06.06 1.993.177 2.802.12.805.289 1.432.505 1.88.214.444.46.667.735.667.378 0 .683-.23.917-.69.233-.46.35-1.055.35-1.785 0-.365.093-.583.281-.654.191-.069.406-.104.645-.104.342 0 .572.082.69.245.12.164.182.316.182.454 0 1.351-.276 2.398-.826 3.142-.549.743-1.294 1.113-2.239 1.113Zm7.716.059c-.316 0-.577-.062-.786-.182-.209-.118-.313-.392-.313-.822v-.236c0-.157.002-.34.009-.55.006-.208.009-.394.009-.558a120.215 120.215 0 0 0 .04-3.269c0-.745.007-1.519.019-2.325a33.33 33.33 0 0 0-.06-2.479l-.017-.322c0-.35-.055-.596-.164-.736-.106-.138-.276-.223-.508-.254a6.823 6.823 0 0 0-.917-.05c-.376 0-.634-.043-.772-.132-.14-.087-.216-.2-.227-.336a4.86 4.86 0 0 1-.018-.435c0-.242.078-.437.236-.586.156-.151.323-.227.5-.227 1.03 0 2.045.003 3.041.009.996.007 1.886.009 2.67.009.238 0 .427.073.563.218.138.143.209.29.209.44 0 .152-.064.34-.19.568-.126.227-.35.372-.677.436a4.826 4.826 0 0 1-.722.104 5.452 5.452 0 0 0-.509.046c-.24.04-.4.117-.481.231-.082.113-.123.276-.123.49 0 .177-.003.435-.009.777-.007.34-.012.698-.018 1.076-.007.38-.014.725-.023 1.04-.007.315-.009.542-.009.68l.06 6.258c0 .39-.059.675-.173.853-.113.175-.326.264-.64.264Zm7.809-.059c-.681 0-1.288-.274-1.817-.822-.53-.547-.948-1.337-1.257-2.37-.309-1.036-.463-2.272-.463-3.71 0-1.346.147-2.521.445-3.523.296-1.001.712-1.782 1.248-2.343.536-.563 1.15-.845 1.844-.845a2.34 2.34 0 0 1 1.443.495c.436.327.811.786 1.127 1.376.301.581.538 1.283.708 2.102.169.818.254 1.73.254 2.738 0 1.438-.152 2.674-.454 3.71-.303 1.033-.722 1.823-1.258 2.37-.535.548-1.143.822-1.82.822Zm0-1.721c.338 0 .633-.223.885-.668.254-.447.452-1.074.595-1.88.145-.808.218-1.74.218-2.8 0-.845-.054-1.601-.159-2.271-.107-.669-.267-1.21-.481-1.626-.304-.617-.657-.926-1.058-.926-.343 0-.644.202-.904.604-.258.403-.456.967-.595 1.694-.136.724-.204 1.565-.204 2.524 0 1.06.068 1.993.204 2.802.139.805.337 1.432.595 1.88.26.444.561.667.904.667Zm9.962 1.798a.92.92 0 0 1-.304-.041 1.75 1.75 0 0 1-.645-.422 4.833 4.833 0 0 1-.603-.822c-.24-.39-.502-.863-.786-1.417a7.182 7.182 0 0 1-.595-1.553c-.025-.127-.086-.19-.186-.19-.064 0-.108.038-.132.113-.052.164-.077.493-.077.985v.377c0 .14.006.298.018.473.012.163.019.35.019.558v.786c0 .315-.048.58-.141.794-.094.211-.375.318-.84.318-.367 0-.62-.107-.758-.318-.14-.215-.209-.479-.209-.794v-.237c0-.156.002-.34.009-.549.009-.209.013-.395.013-.558a157.49 157.49 0 0 0 .037-3.137 330.743 330.743 0 0 0-.037-4.614c0-.302-.013-.629-.041-.98a15.126 15.126 0 0 1-.036-1.022c0-.593.204-.995.613-1.204.411-.208.976-.313 1.694-.313.529 0 .986.136 1.371.409.384.27.705.62.963 1.049.259.43.464.89.612 1.38a9.246 9.246 0 0 1 .418 2.534c0 .717-.088 1.303-.263 1.757-.176.454-.366.776-.568.967l-.427.35c-.133.106-.262.19-.385.254.099.426.233.861.404 1.303.172.442.372.847.599 1.212.287.467.515.813.686 1.04.172.227.296.402.372.522a.739.739 0 0 1 .113.404.457.457 0 0 1-.322.463 1.674 1.674 0 0 1-.586.123Zm-2.533-6.847c.314 0 .565-.198.753-.595.191-.396.287-.922.287-1.576 0-.568-.071-1.082-.209-1.543-.14-.46-.314-.824-.522-1.095-.207-.272-.43-.408-.668-.408-.227 0-.363.111-.409.331-.043.222-.057.566-.045 1.03v2.989c0 .252.061.458.186.622.127.163.336.245.627.245Zm5.067 6.806c-.366 0-.62-.107-.758-.318-.14-.215-.209-.479-.209-.794v-.237c0-.156.002-.34.009-.549.009-.209.014-.395.014-.558a130.514 130.514 0 0 0 .036-3.137c0-.746-.003-1.488-.009-2.23-.007-.745-.016-1.54-.027-2.384 0-.327-.014-.686-.041-1.076a17.577 17.577 0 0 1-.036-1.117c0-.302.043-.568.131-.795.088-.227.365-.34.831-.34.505 0 .814.09.926.268.115.176.173.389.173.64 0 .379-.014.785-.041 1.221-.025.434-.036.833-.036 1.199l-.018 3.687-.019 2.23c.012.29.019.587.019.89 0 .302.005.617.018.944.011.163.018.35.018.558v.786c0 .315-.048.58-.141.794-.094.211-.374.318-.84.318Zm2.646.023c-.264 0-.453-.062-.568-.182a.597.597 0 0 1-.168-.427c0-.111.018-.231.055-.358.038-.1.102-.366.19-.8.088-.435.193-.968.318-1.598a240.005 240.005 0 0 0 .804-4.2c.133-.705.252-1.346.359-1.925.109-.581.188-1.028.24-1.344.037-.238.083-.563.141-.972a7.58 7.58 0 0 0 .086-.994c0-.254.091-.456.273-.608.181-.151.442-.227.785-.227.338 0 .6.076.781.227a.75.75 0 0 1 .277.608c0 .252.027.584.082.994.057.41.105.734.145.972.051.316.13.763.236 1.344.106.579.225 1.22.359 1.925.133.706.268 1.425.404 2.157a161.118 161.118 0 0 0 .731 3.641c.093.434.154.7.182.8.036.127.054.247.054.358a.593.593 0 0 1-.172.427c-.113.12-.3.182-.563.182-.355 0-.613-.041-.777-.123-.163-.082-.289-.274-.377-.577a44.192 44.192 0 0 0-.136-.549 2.976 2.976 0 0 0-.132-.418 1.093 1.093 0 0 0-.331-.49c-.158-.139-.412-.209-.763-.209-.354 0-.611.07-.767.209a1.14 1.14 0 0 0-.332.49 2.992 2.992 0 0 0-.122.418 6.477 6.477 0 0 1-.141.55c-.089.302-.213.494-.377.576-.163.082-.422.123-.776.123Zm2.515-3.932c.187 0 .351-.029.491-.087.138-.056.196-.205.172-.445a38.877 38.877 0 0 1-.082-.672 44.264 44.264 0 0 0-.14-1.121l-.159-1.222a14.158 14.158 0 0 0-.15-.98c-.052-.26-.096-.39-.132-.39-.04 0-.085.13-.136.39-.049.257-.099.584-.15.98-.049.398-.102.804-.159 1.222-.058.415-.106.789-.145 1.121l-.073.672c-.025.24.037.389.182.445.145.058.305.087.481.087Zm5.539 3.932a1.67 1.67 0 0 1-.731-.182c-.245-.118-.367-.392-.367-.822v-.236c0-.157.002-.34.009-.55.009-.208.013-.394.013-.558.012-.565.021-1.128.028-1.689a181.249 181.249 0 0 0 0-3.81c-.007-.744-.016-1.539-.028-2.383 0-.327-.013-.686-.041-1.076a18.352 18.352 0 0 1-.036-1.117c0-.302.043-.568.132-.795.087-.227.364-.34.831-.34.505 0 .814.09.926.268.115.176.173.389.173.64 0 .379-.012.785-.032 1.221-.018.434-.034.833-.046 1.199l-.077 2.856v4.858c0 .327.101.511.304.55.202.036.511.054.927.054.278 0 .581.02.908.06.327.035.609.133.849.29.242.157.363.407.363.749 0 .276-.118.448-.354.517-.234.07-.456.105-.668.105h-1.344c-.379 0-.707.032-.985.095a3.381 3.381 0 0 1-.754.096Z"/>
  <path fill="#721772" d="M3.682 40.773c-1.153 0-2.055-.688-2.706-2.066C.325 37.33 0 35.414 0 32.96c0-1.526.163-2.856.49-3.991.33-1.135.795-2.02 1.394-2.656.6-.636 1.292-.954 2.08-.954.683 0 1.278.223 1.784.668.509.442.905 1.066 1.19 1.87.284.806.427 1.744.427 2.815 0 .658-.364.986-1.09.986-.358 0-.612-.082-.763-.245a1.19 1.19 0 0 1-.286-.59c0-1.056-.111-1.913-.331-2.57-.222-.657-.518-.986-.89-.986-.385 0-.725.23-1.017.686-.291.457-.516 1.096-.672 1.916-.158.82-.236 1.774-.236 2.86 0 1.199.065 2.256.2 3.17.136.911.324 1.62.567 2.129.245.506.523.758.835.758.43 0 .777-.26 1.04-.78s.395-1.196.395-2.026c0-.41.107-.656.322-.735.215-.079.457-.118.727-.118.387 0 .647.093.78.277.137.185.205.356.205.513 0 1.529-.31 2.714-.93 3.555-.621.842-1.467 1.262-2.539 1.262Zm8.972 0c-.77 0-1.455-.31-2.057-.93-.6-.62-1.075-1.515-1.425-2.684-.349-1.172-.523-2.571-.523-4.2 0-1.526.168-2.856.504-3.991.336-1.135.806-2.02 1.412-2.656.609-.636 1.305-.954 2.09-.954.598 0 1.144.186 1.638.559.493.37.917.89 1.272 1.562.345.657.612 1.45.803 2.379.193.926.29 1.96.29 3.1 0 1.63-.17 3.03-.512 4.2-.343 1.17-.818 2.064-1.426 2.684-.606.621-1.294.931-2.066.931Zm0-1.948c.384 0 .719-.252 1.004-.758.287-.509.513-1.218.676-2.13.166-.913.25-1.97.25-3.169 0-.956-.063-1.813-.186-2.57-.122-.756-.303-1.37-.545-1.843-.343-.7-.743-1.049-1.199-1.049-.385 0-.724.23-1.017.686-.29.457-.515 1.096-.672 1.916-.158.82-.236 1.774-.236 2.86 0 1.199.078 2.256.236 3.17.157.911.381 1.62.672 2.129.293.506.632.758 1.017.758Zm13.51-2.869c.015.33.023.666.023 1.008 0 .342.005.698.018 1.067.015.188.023.4.023.635v.886c0 .357-.055.657-.164.899-.106.242-.422.363-.949.363-.599 0-1.056-.103-1.37-.309-.317-.205-.55-.552-.705-1.04l-2.27-6.996c-.058-.173-.166-.26-.322-.26-.17 0-.27.109-.3.323v3.424c.015.33.023.666.023 1.008 0 .342.007.698.023 1.067.01.188.018.4.018.635v.886c0 .357-.054.657-.16.899-.106.242-.424.363-.953.363-.415 0-.701-.121-.858-.363-.154-.242-.232-.542-.232-.9v-.267c0-.178.003-.384.01-.618.005-.236.009-.447.009-.635a187.801 187.801 0 0 0 .045-3.551 375.334 375.334 0 0 0-.045-5.226c0-.369-.016-.774-.046-1.217a20.94 20.94 0 0 1-.04-1.267c0-.327.05-.618.15-.876.1-.256.392-.393.88-.409h.064c.426 0 .776.018 1.048.055.273.036.486.247.64.631a64.126 64.126 0 0 1 .826 2.38c.206.626.43 1.304.673 2.033l.731 2.17c.242.721.47 1.38.686 1.98.069.173.16.26.277.26.141 0 .213-.108.213-.323 0-.814-.011-1.695-.032-2.643-.021-.95-.04-1.875-.054-2.774 0-.369-.016-.774-.046-1.217a20.94 20.94 0 0 1-.04-1.267c0-.341.05-.641.15-.899.1-.256.414-.386.944-.386.568 0 .917.102 1.044.305.13.2.195.442.195.726 0 .427-.016.888-.045 1.38-.027.494-.041.947-.041 1.358l-.04 4.177v2.525Zm5.18 4.881c-.357 0-.654-.069-.89-.205-.233-.133-.35-.442-.35-.93v-.268c0-.179.003-.384.01-.618a277.79 277.79 0 0 0 .054-4.336c0-.841.006-1.719.018-2.633a38.52 38.52 0 0 0-.058-2.806l-.023-.364c0-.4-.061-.677-.182-.835-.121-.157-.315-.252-.581-.286a7.89 7.89 0 0 0-1.035-.055c-.43 0-.724-.05-.881-.15a.507.507 0 0 1-.254-.386 4.924 4.924 0 0 1-.023-.494c0-.27.088-.488.268-.659.178-.172.368-.259.567-.259 1.172 0 2.32.004 3.447.01a574.1 574.1 0 0 0 3.019.009c.272 0 .486.084.64.25.157.163.236.33.236.499 0 .172-.071.388-.213.644-.143.258-.4.422-.772.49a5.784 5.784 0 0 1-.813.123 5.832 5.832 0 0 0-.576.05c-.273.044-.457.13-.55.26-.09.126-.136.311-.136.553a282.409 282.409 0 0 0-.032 2.102c-.007.427-.013.82-.023 1.176-.006.355-.009.611-.009.768l.064 7.087c0 .443-.066.763-.195.963-.127.2-.37.3-.727.3Zm10.836.023c-.145 0-.26-.017-.345-.046-.27-.1-.512-.26-.726-.481-.216-.22-.444-.532-.686-.931a23.3 23.3 0 0 1-.89-1.603c-.321-.629-.545-1.215-.672-1.757-.03-.142-.102-.214-.213-.214-.073 0-.123.044-.15.128-.058.185-.086.556-.086 1.112v.431c0 .155.007.332.022.532.012.188.019.4.019.635v.886c0 .357-.054.657-.16.899-.106.242-.424.363-.953.363-.415 0-.701-.121-.858-.363-.154-.242-.231-.542-.231-.9v-.267c0-.178.002-.384.009-.618.005-.236.009-.447.009-.635.014-.642.025-1.255.031-1.84.01-.583.014-1.154.014-1.711 0-.841-.005-1.682-.014-2.524-.006-.845-.017-1.745-.031-2.702 0-.342-.016-.713-.046-1.113-.027-.399-.04-.783-.04-1.153 0-.672.23-1.126.694-1.362.465-.236 1.106-.354 1.92-.354.6 0 1.115.154 1.549.463.436.307.8.703 1.094 1.19a6.93 6.93 0 0 1 .695 1.562 9.98 9.98 0 0 1 .363 1.593c.073.507.11.93.11 1.272 0 .815-.1 1.479-.3 1.993-.2.515-.416.879-.645 1.09-.17.145-.33.279-.482.4a2.272 2.272 0 0 1-.435.285c.11.488.264.98.458 1.48.193.5.419.956.677 1.367.327.53.585.924.776 1.18.193.258.333.455.418.59a.82.82 0 0 1 .131.46.514.514 0 0 1-.363.522 1.87 1.87 0 0 1-.663.14Zm-2.87-7.751c.357 0 .642-.224.854-.672.215-.45.323-1.047.323-1.79 0-.64-.08-1.222-.236-1.743-.158-.523-.354-.937-.59-1.244-.235-.305-.486-.458-.759-.458-.258 0-.412.126-.463.376-.049.25-.066.636-.05 1.163v3.383c0 .284.07.52.213.708.142.185.378.277.709.277Zm5.115 7.728c-.3 0-.515-.069-.644-.205a.67.67 0 0 1-.19-.481c0-.127.022-.261.067-.404.042-.115.114-.418.214-.908.1-.493.22-1.097.363-1.812.142-.714.292-1.485.45-2.31.156-.83.31-1.645.458-2.444.15-.799.287-1.526.409-2.184.12-.656.21-1.163.267-1.52.042-.27.096-.636.16-1.1.063-.465.095-.84.095-1.126 0-.283.102-.51.309-.68.208-.173.505-.26.89-.26.386 0 .683.087.89.26a.84.84 0 0 1 .308.68c0 .285.032.661.095 1.127.066.463.12.83.164 1.098.057.358.146.865.268 1.521a571.811 571.811 0 0 0 .867 4.627 213.43 213.43 0 0 0 .822 4.123c.109.49.177.793.204.908.042.143.064.277.064.404a.67.67 0 0 1-.191.481c-.127.137-.34.205-.64.205-.403 0-.697-.048-.881-.141-.185-.09-.327-.307-.427-.65l-.15-.621a3.743 3.743 0 0 0-.15-.473 1.298 1.298 0 0 0-.376-.554c-.18-.156-.468-.236-.868-.236-.4 0-.689.08-.867.236-.176.158-.3.343-.372.554-.058.143-.105.3-.14.473a6.76 6.76 0 0 1-.16.622c-.1.342-.244.558-.431.649-.185.093-.477.14-.877.14Zm2.847-4.455c.215 0 .401-.031.559-.095.156-.063.22-.231.19-.504a33.84 33.84 0 0 0-.086-.758 61.678 61.678 0 0 0-.159-1.271c-.063-.473-.125-.932-.181-1.38a17.618 17.618 0 0 0-.173-1.113c-.054-.293-.104-.44-.15-.44-.043 0-.093.147-.15.44-.054.29-.11.662-.167 1.112-.058.449-.12.908-.187 1.38-.063.47-.117.894-.159 1.272l-.086.758c-.027.273.041.44.204.504.164.064.346.095.545.095Zm10.985 4.455c-.272 0-.548-.069-.826-.205-.276-.133-.413-.442-.413-.93v-.268c0-.179.002-.384.009-.618.006-.236.009-.447.009-.636.015-.64.025-1.278.032-1.911.009-.636.013-1.232.013-1.789a375.334 375.334 0 0 0-.045-5.226 18.8 18.8 0 0 0-.045-1.217 20.18 20.18 0 0 1-.041-1.267c0-.341.05-.641.15-.899.1-.256.414-.386.944-.386.572 0 .922.102 1.049.305.127.2.19.442.19.726 0 .427-.01.888-.031 1.38-.022.494-.039.947-.05 1.358l-.087 3.233v5.503c0 .372.114.58.341.622.23.043.579.063 1.049.063.314 0 .656.022 1.026.064.372.043.692.153.963.331.272.18.408.461.408.845 0 .316-.131.512-.395.59-.263.08-.516.118-.758.118h-1.521c-.43 0-.803.034-1.117.105a3.794 3.794 0 0 1-.854.109Zm6.037 0c-.3 0-.516-.069-.645-.205a.67.67 0 0 1-.19-.481c0-.127.022-.261.067-.404.042-.115.114-.418.214-.908.1-.493.22-1.097.363-1.812.142-.714.292-1.485.45-2.31.156-.83.31-1.645.458-2.444.151-.799.287-1.526.409-2.184.12-.656.21-1.163.268-1.52.042-.27.095-.636.159-1.1.063-.465.095-.84.095-1.126 0-.283.102-.51.309-.68.209-.173.505-.26.89-.26.387 0 .683.087.89.26a.84.84 0 0 1 .308.68c0 .285.032.661.096 1.127.065.463.12.83.163 1.098.057.358.147.865.268 1.521.12.658.255 1.385.404 2.184l.463 2.443a224.837 224.837 0 0 0 .822 4.123c.109.49.177.793.204.908.042.143.064.277.064.404a.67.67 0 0 1-.19.481c-.128.137-.341.205-.641.205-.403 0-.697-.048-.88-.141-.186-.09-.328-.307-.428-.65l-.15-.621a3.742 3.742 0 0 0-.15-.473 1.297 1.297 0 0 0-.376-.554c-.18-.156-.468-.236-.867-.236-.4 0-.69.08-.868.236-.176.158-.3.343-.372.554-.058.143-.104.3-.14.473-.035.172-.087.38-.16.622-.1.342-.244.558-.431.649-.185.093-.477.14-.876.14Zm2.847-4.455c.214 0 .4-.031.558-.095.157-.063.22-.231.19-.504-.012-.127-.04-.379-.085-.758a61.73 61.73 0 0 0-.16-1.271c-.063-.473-.124-.932-.181-1.38a17.618 17.618 0 0 0-.173-1.113c-.054-.293-.104-.44-.15-.44-.043 0-.093.147-.15.44a19.3 19.3 0 0 0-.167 1.112c-.058.449-.12.908-.186 1.38-.064.47-.117.894-.16 1.272-.043.379-.07.631-.086.758-.027.273.041.44.205.504.163.064.345.095.545.095Zm10.985 4.455c-.273 0-.549-.069-.827-.205-.276-.133-.413-.442-.413-.93v-.268c0-.179.002-.384.01-.618.005-.236.008-.447.008-.636.015-.64.025-1.278.032-1.911.009-.636.013-1.232.013-1.789a364.091 364.091 0 0 0-.045-5.226c0-.342-.016-.713-.045-1.112-.027-.4-.041-.784-.041-1.154 0-.372.05-.71.15-1.017.1-.309.322-.47.667-.486.17 0 .456.005.863.014.408.007.847.017 1.317.032a68.301 68.301 0 0 0 2.056.04c.273 0 .487.085.645.25.157.164.236.33.236.5 0 .345-.097.604-.29.776a1.6 1.6 0 0 1-.74.35c-.3.063-.6.095-.9.095-.326 0-.634-.002-.921-.009-.285-.009-.509.041-.672.15-.164.107-.245.33-.245.672 0 .2.002.497.009.89.005.394.009.811.009 1.253 0 .443.002.845.009 1.208.009.363.014.624.014.78 0 .316.056.52.172.614.115.09.272.136.472.136.284 0 .587.03.908.086.32.058.6.162.836.313.236.15.354.38.354.695 0 .2-.098.354-.29.463a2.11 2.11 0 0 1-.7.223c-.27.043-.525.068-.767.077-.243.007-.421.009-.536.009a.523.523 0 0 0-.386.182.62.62 0 0 0-.168.435v2.27c0 .373.124.58.372.623.251.043.611.063 1.081.063.314 0 .656.022 1.026.064.373.043.693.153.963.331.272.18.408.461.408.845 0 .2-.143.347-.426.44a4.4 4.4 0 0 1-1.063.187l-1.294.081a8.152 8.152 0 0 0-1.167.118c-.348.064-.58.096-.694.096Zm8.97 0c-.584 0-1.13-.13-1.639-.386a3.325 3.325 0 0 1-1.23-1.05 2.477 2.477 0 0 1-.472-1.475c0-.3.056-.51.172-.63a.523.523 0 0 1 .386-.183c.456 0 .814.235 1.072.704.327.6.933.9 1.82.9.342 0 .655-.078.94-.232.284-.157.427-.373.427-.645a.633.633 0 0 0-.182-.45 1.572 1.572 0 0 0-.331-.277c-.957-.628-1.72-1.236-2.293-1.82-.57-.584-1.001-1.145-1.294-1.68-.29-.536-.483-1.035-.577-1.499a6.343 6.343 0 0 1-.14-1.253c0-1.87.313-3.255.94-4.154.628-.9 1.508-1.349 2.638-1.349 1.082 0 1.899.368 2.447 1.104.55.735.826 1.816.826 3.241 0 .473-.03.956-.086 1.449-.055.49-.132.965-.232 1.421-.115.53-.422.795-.921.795-.33 0-.582-.079-.754-.236-.17-.157-.254-.436-.254-.836.13-.629.195-1.286.195-1.97 0-.972-.123-1.71-.368-2.216-.243-.505-.527-.758-.854-.758-.372 0-.698.267-.976.803-.279.534-.417 1.328-.417 2.384 0 .343.092.802.277 1.38.187.58.567 1.139 1.14 1.68.453.43.887.785 1.302 1.063.415.279.782.553 1.104.826.32.27.576.59.767.962.193.37.29.862.29 1.476 0 .672-.175 1.222-.526 1.648a3.126 3.126 0 0 1-1.367.954 5.303 5.303 0 0 1-1.83.309Zm8.691-.064c-1.154 0-2.056-.688-2.706-2.066-.652-1.377-.977-3.293-.977-5.748 0-1.526.164-2.856.49-3.991.33-1.135.795-2.02 1.395-2.656.6-.636 1.291-.954 2.08-.954.683 0 1.277.223 1.784.668.508.442.904 1.066 1.19 1.87.283.806.426 1.744.426 2.815 0 .658-.363.986-1.09.986-.357 0-.611-.082-.762-.245a1.19 1.19 0 0 1-.286-.59c0-1.056-.112-1.913-.332-2.57-.221-.657-.517-.986-.89-.986-.385 0-.724.23-1.017.686-.29.457-.515 1.096-.672 1.916-.158.82-.236 1.774-.236 2.86 0 1.199.066 2.256.2 3.17.136.911.324 1.62.567 2.129.246.506.524.758.836.758.429 0 .776-.26 1.04-.78.263-.52.395-1.196.395-2.026 0-.41.106-.656.322-.735a2.09 2.09 0 0 1 .726-.118c.388 0 .647.093.781.277.137.185.205.356.205.513 0 1.529-.311 2.714-.931 3.555-.621.842-1.467 1.262-2.538 1.262Zm13.19-4.817c.014.33.022.666.022 1.008 0 .342.006.698.019 1.067.014.188.022.4.022.635v.886c0 .357-.054.657-.163.899-.107.242-.422.363-.949.363-.6 0-1.057-.103-1.371-.309-.316-.205-.55-.552-.704-1.04l-2.27-6.996c-.058-.173-.166-.26-.323-.26-.17 0-.27.109-.299.323v3.424c.014.33.022.666.022 1.008 0 .342.007.698.023 1.067.011.188.018.4.018.635v.886c0 .357-.053.657-.159.899-.106.242-.424.363-.953.363-.416 0-.702-.121-.858-.363-.155-.242-.232-.542-.232-.9v-.267c0-.178.002-.384.009-.618.006-.236.009-.447.009-.635.015-.642.025-1.255.032-1.84.009-.583.014-1.154.014-1.711 0-.841-.005-1.682-.014-2.524-.007-.845-.017-1.745-.032-2.702a18.8 18.8 0 0 0-.045-1.217 20.974 20.974 0 0 1-.041-1.267c0-.327.05-.618.15-.876.1-.256.392-.393.881-.409h.063c.427 0 .777.018 1.049.055.272.036.486.247.64.631a65.764 65.764 0 0 1 .827 2.38c.205.626.429 1.304.672 2.033l.731 2.17c.241.721.469 1.38.685 1.98.069.173.161.26.277.26.142 0 .214-.108.214-.323 0-.814-.012-1.695-.032-2.643-.022-.95-.04-1.875-.055-2.774a18.8 18.8 0 0 0-.045-1.217 20.974 20.974 0 0 1-.041-1.267c0-.341.05-.641.15-.899.1-.256.414-.386.944-.386.569 0 .917.102 1.045.305.129.2.195.442.195.726 0 .427-.016.888-.046 1.38-.027.494-.04.947-.04 1.358l-.041 4.177v2.525Zm9.634 0c.015.33.023.666.023 1.008 0 .342.005.698.018 1.067.015.188.023.4.023.635v.886c0 .357-.055.657-.164.899-.107.242-.422.363-.949.363-.599 0-1.057-.103-1.371-.309-.316-.205-.55-.552-.704-1.04l-2.27-6.996c-.058-.173-.166-.26-.322-.26-.171 0-.271.109-.3.323v3.424c.015.33.023.666.023 1.008 0 .342.006.698.022 1.067.012.188.018.4.018.635v.886c0 .357-.053.657-.159.899-.106.242-.424.363-.953.363-.415 0-.702-.121-.858-.363-.155-.242-.232-.542-.232-.9v-.267c0-.178.003-.384.009-.618.006-.236.009-.447.009-.635.015-.642.025-1.255.032-1.84.009-.583.014-1.154.014-1.711 0-.841-.005-1.682-.014-2.524-.007-.845-.017-1.745-.032-2.702 0-.369-.015-.774-.045-1.217a20.974 20.974 0 0 1-.041-1.267c0-.327.05-.618.15-.876.1-.256.393-.393.881-.409h.063c.427 0 .777.018 1.049.055.273.036.486.247.64.631a65.764 65.764 0 0 1 .827 2.38c.205.626.429 1.304.672 2.033l.731 2.17c.242.721.47 1.38.685 1.98.07.173.162.26.277.26.142 0 .214-.108.214-.323 0-.814-.012-1.695-.032-2.643-.022-.95-.04-1.875-.054-2.774 0-.369-.016-.774-.046-1.217a20.974 20.974 0 0 1-.041-1.267c0-.341.05-.641.15-.899.1-.256.414-.386.945-.386.568 0 .917.102 1.044.305.129.2.195.442.195.726 0 .427-.016.888-.045 1.38-.028.494-.041.947-.041 1.358l-.041 4.177v2.525Zm1.947 4.881c-.299 0-.515-.069-.644-.205a.667.667 0 0 1-.191-.481c0-.127.023-.261.068-.404.042-.115.114-.418.213-.908l.364-1.812a336.851 336.851 0 0 0 .908-4.754c.151-.799.287-1.526.408-2.184.121-.656.21-1.163.268-1.52.042-.27.096-.636.159-1.1.064-.465.096-.84.096-1.126 0-.283.102-.51.308-.68.209-.173.505-.26.89-.26.387 0 .684.087.89.26.206.17.309.397.309.68 0 .285.032.661.095 1.127.066.463.121.83.164 1.098.056.358.146.865.268 1.521.12.658.255 1.385.404 2.184l.463 2.443a212.71 212.71 0 0 0 .822 4.123c.109.49.177.793.204.908.042.143.064.277.064.404a.671.671 0 0 1-.191.481c-.127.137-.341.205-.64.205-.403 0-.697-.048-.881-.141-.185-.09-.327-.307-.427-.65l-.15-.621a3.678 3.678 0 0 0-.15-.473 1.285 1.285 0 0 0-.377-.554c-.179-.156-.467-.236-.867-.236-.399 0-.689.08-.867.236a1.3 1.3 0 0 0-.372.554 2.74 2.74 0 0 0-.141.473c-.034.172-.086.38-.159.622-.1.342-.244.558-.431.649-.185.093-.477.14-.877.14Zm2.847-4.455c.215 0 .401-.031.559-.095.156-.063.22-.231.19-.504a33.84 33.84 0 0 0-.086-.758 57.834 57.834 0 0 0-.159-1.271c-.063-.473-.125-.932-.181-1.38a17.618 17.618 0 0 0-.173-1.113c-.054-.293-.104-.44-.15-.44-.043 0-.093.147-.15.44-.054.29-.111.662-.168 1.112-.058.449-.12.908-.186 1.38-.063.47-.117.894-.159 1.272l-.086.758c-.027.273.041.44.204.504.164.064.345.095.545.095Z"/>
  <path fill="#737373" d="M76.071 59.373c-.272 0-.465-.054-.576-.16-.11-.105-.164-.256-.164-.453 0-.06.002-.12.01-.182.005-.064.014-.125.026-.186.024-.1.055-.31.091-.631.037-.32.084-.709.145-1.163.064-.456.133-.931.21-1.425.072-.457.138-.983.2-1.58.063-.6.115-1.215.158-1.848.042-.636.082-1.249.118-1.84l.105-1.602c.029-.474.056-.835.081-1.08a1.77 1.77 0 0 1 .25-.795c.142-.236.442-.354.899-.354.493 0 .823.068.99.204.165.136.286.377.358.722.1.494.189.925.268 1.294.082.37.147.726.196 1.072l.722 4.327c.036.172.11.258.222.258.109 0 .175-.086.2-.258l.722-4.328c.063-.345.131-.701.204-1.071.075-.369.161-.8.259-1.294.075-.345.196-.586.363-.722.166-.136.495-.204.985-.204.457 0 .75.118.881.354.13.234.22.498.268.794a162.48 162.48 0 0 1 .25 2.57c.054.603.105 1.23.154 1.885a118.88 118.88 0 0 0 .318 3.496c.06.506.115.99.163 1.453a50.655 50.655 0 0 0 .223 1.766 1.604 1.604 0 0 1 .04.295.726.726 0 0 1-.167.49c-.112.13-.303.196-.572.196-.345 0-.595-.039-.75-.114-.154-.072-.28-.245-.38-.517a2.926 2.926 0 0 1-.114-.44c-.037-.2-.086-.423-.146-.668a10.238 10.238 0 0 1-.104-.659 33.215 33.215 0 0 1-.127-1.144c-.043-.438-.09-.882-.14-1.33a46.34 46.34 0 0 1-.119-1.222 16.82 16.82 0 0 0-.082-.803.789.789 0 0 0-.068-.25c-.03-.07-.058-.105-.082-.105-.06 0-.108.155-.145.464a9.76 9.76 0 0 1-.104.722 73.897 73.897 0 0 1-.427 2.347c-.08.406-.148.766-.204 1.08-.055.316-.095.53-.118.64a.838.838 0 0 1-.473.632c-.263.134-.5.2-.708.2-.212 0-.452-.066-.717-.2a.887.887 0 0 1-.486-.631 18.599 18.599 0 0 1-.123-.64 41.664 41.664 0 0 0-.204-1.081c-.08-.405-.157-.814-.232-1.226a99.272 99.272 0 0 1-.19-1.121 9.735 9.735 0 0 1-.1-.722c-.04-.31-.09-.464-.15-.464-.025 0-.053.036-.086.105a.825.825 0 0 0-.064.25c-.012.172-.036.44-.073.803-.036.364-.08.771-.131 1.222-.049.448-.094.892-.136 1.33-.044.436-.087.817-.132 1.144a10.35 10.35 0 0 1-.1.659c-.049.245-.095.467-.14.667a3.45 3.45 0 0 1-.119.44c-.085.273-.207.446-.368.518-.16.075-.413.114-.758.114Zm11.206 0c-.236 0-.476-.06-.718-.177-.24-.118-.358-.386-.358-.804v-.232c0-.154.002-.332.009-.535.006-.203.009-.384.009-.545a118.224 118.224 0 0 0 .04-3.201c0-.727-.003-1.453-.008-2.18-.007-.728-.017-1.507-.032-2.334 0-.296-.013-.617-.036-.962a13.757 13.757 0 0 1-.037-.994c0-.32.042-.614.127-.881.088-.266.28-.405.577-.418a55.713 55.713 0 0 1 1.884.04 82.993 82.993 0 0 0 1.776.037c.236 0 .42.072.553.214.137.14.205.283.205.43 0 .298-.084.52-.25.668a1.36 1.36 0 0 1-.64.305 3.723 3.723 0 0 1-.772.081c-.285 0-.552-.002-.8-.009-.244-.005-.438.039-.58.132-.14.09-.21.285-.21.581 0 .173.003.43.01.767.006.34.01.702.01 1.086 0 .381.001.73.008 1.044.006.312.01.536.01.672 0 .272.047.45.144.531.1.08.237.118.41.118.244 0 .505.025.785.073.278.049.518.138.722.268.202.13.304.331.304.604 0 .172-.084.306-.25.4-.167.09-.368.154-.604.19a5.264 5.264 0 0 1-.663.063c-.209.007-.363.01-.463.01a.45.45 0 0 0-.331.158c-.1.104-.15.23-.15.377v1.962c0 .321.107.5.322.535.218.037.53.055.936.055.272 0 .568.02.89.059.32.036.597.132.83.286.233.154.35.398.35.731 0 .173-.123.3-.368.381a3.84 3.84 0 0 1-.917.155c-.363.025-.736.049-1.117.073-.37.01-.706.045-1.008.1a4.264 4.264 0 0 1-.6.086Zm7.448-.037c-.333 0-.589-.008-.767-.022a3.348 3.348 0 0 1-.69-.146c-.272-.087-.477-.182-.613-.286-.136-.105-.204-.313-.204-.622v-.227c0-.154.002-.332.009-.535.006-.206.009-.389.009-.55a121.22 121.22 0 0 0 .04-3.07c0-.726-.003-1.452-.008-2.179-.007-.728-.017-1.507-.032-2.334 0-.296-.013-.617-.036-.962a13.76 13.76 0 0 1-.037-.994c0-.457.089-.79.268-1 .178-.21.437-.344.776-.399a7.747 7.747 0 0 1 1.213-.082c.665 0 1.254.223 1.766.668.51.443.942 1.028 1.294 1.757a10.3 10.3 0 0 1 .795 2.375c.178.857.268 1.698.268 2.524 0 .74-.066 1.469-.196 2.189a6.87 6.87 0 0 1-.644 1.961 3.752 3.752 0 0 1-1.24 1.408c-.524.351-1.18.526-1.97.526Zm.373-1.775c.565 0 1.021-.386 1.367-1.158.345-.772.517-1.791.517-3.06 0-1.172-.125-2.185-.372-3.042-.245-.856-.54-1.522-.886-1.998-.345-.474-.665-.713-.958-.713-.236 0-.375.11-.417.327-.044.216-.064.55-.064 1.004v7.786a.96.96 0 0 0 .19.613c.13.162.338.241.623.241Zm5.844 1.812a1.63 1.63 0 0 1-.718-.177c-.24-.118-.359-.386-.359-.804v-.232c0-.154.003-.332.01-.535.005-.203.009-.384.009-.545a118.224 118.224 0 0 0 .04-3.201 264.03 264.03 0 0 0-.04-4.514c0-.296-.013-.617-.037-.962a13.757 13.757 0 0 1-.036-.994c0-.32.042-.614.127-.881.088-.266.279-.405.577-.418a55.824 55.824 0 0 1 1.884.04 83.107 83.107 0 0 0 1.775.037c.237 0 .42.072.554.214.137.14.205.283.205.43 0 .298-.084.52-.25.668a1.36 1.36 0 0 1-.64.305 3.73 3.73 0 0 1-.772.081c-.285 0-.552-.002-.799-.009-.245-.005-.44.039-.581.132-.14.09-.209.285-.209.581 0 .173.002.43.009.767.005.34.009.702.009 1.086 0 .381.002.73.009 1.044.006.312.009.536.009.672 0 .272.048.45.145.531.1.08.236.118.409.118.245 0 .506.025.785.073.279.049.519.138.722.268.202.13.305.331.305.604 0 .172-.084.306-.25.4-.167.09-.368.154-.604.19a5.268 5.268 0 0 1-.663.063c-.209.007-.363.01-.463.01a.448.448 0 0 0-.331.158c-.1.104-.15.23-.15.377v1.962c0 .321.106.5.322.535.218.037.529.055.935.055.273 0 .569.02.89.059.32.036.597.132.831.286.233.154.35.398.35.731 0 .173-.123.3-.368.381a3.84 3.84 0 0 1-.917.155c-.363.025-.736.049-1.117.073-.37.01-.706.045-1.008.1a4.27 4.27 0 0 1-.599.086Zm6.25 0a1.63 1.63 0 0 1-.718-.177c-.239-.118-.358-.386-.358-.804v-.232c0-.154.002-.332.009-.535.005-.203.009-.384.009-.545a116.658 116.658 0 0 0 .041-3.201 263.886 263.886 0 0 0-.041-4.514c0-.32-.013-.672-.037-1.053a16.651 16.651 0 0 1-.036-1.09c0-.296.042-.555.127-.776.088-.224.36-.336.817-.336.493 0 .795.086.904.259.111.172.168.383.168.63 0 .371-.009.768-.027 1.195a139 139 0 0 0-.046 1.171l-.072 2.793v4.754c0 .321.097.5.295.535.196.037.497.055.903.055.273 0 .569.02.89.059.32.036.597.132.831.286.233.154.35.398.35.731 0 .27-.114.44-.341.509-.227.067-.445.1-.654.1h-1.316c-.37 0-.69.029-.963.09-.27.064-.515.096-.735.096Zm5.88 0a1.63 1.63 0 0 1-.718-.177c-.239-.118-.358-.386-.358-.804v-.232c0-.154.002-.332.009-.535.005-.203.009-.384.009-.545a116.733 116.733 0 0 0 .041-3.201c0-.727-.004-1.453-.009-2.18-.007-.728-.017-1.507-.032-2.334 0-.32-.013-.672-.037-1.053a17.381 17.381 0 0 1-.036-1.09c0-.296.042-.555.127-.776.088-.224.36-.336.818-.336.492 0 .794.086.903.259.111.172.168.383.168.63 0 .371-.009.768-.027 1.195a139 139 0 0 0-.046 1.171l-.072 2.793v4.754c0 .321.097.5.295.535.196.037.497.055.904.055.272 0 .568.02.889.059.321.036.598.132.831.286.233.154.35.398.35.731 0 .27-.114.44-.341.509-.227.067-.445.1-.653.1h-1.317c-.37 0-.69.029-.963.09-.27.064-.515.096-.735.096Zm5.748-.018c-.357 0-.604-.105-.74-.314-.136-.21-.204-.472-.204-.78v-.228c0-.154.002-.332.009-.536.006-.205.009-.388.009-.549a119.589 119.589 0 0 0 .041-3.07c0-.726-.004-1.452-.009-2.179-.007-.728-.017-1.507-.032-2.334 0-.32-.013-.672-.036-1.053a16.676 16.676 0 0 1-.037-1.09c0-.296.042-.555.127-.776.088-.224.36-.336.818-.336.492 0 .794.086.903.259.111.172.168.383.168.63 0 .371-.012.768-.036 1.195-.025.425-.036.815-.036 1.171l-.019 3.606-.018 2.184c.012.285.018.575.018.871 0 .294.006.602.019.922.011.161.018.344.018.55v.762c0 .309-.048.57-.141.781-.091.209-.365.314-.822.314Zm9.228-4.2c.011.285.018.575.018.871 0 .294.005.602.018.922.011.161.018.344.018.55v.762c0 .309-.048.57-.141.781-.091.209-.363.314-.817.314-.518 0-.913-.09-1.185-.268-.272-.179-.476-.478-.608-.9l-1.962-6.047c-.049-.148-.141-.223-.277-.223-.149 0-.235.093-.259.277v2.96c.012.285.018.576.018.872 0 .294.006.602.019.922.011.161.018.344.018.55v.762c0 .309-.048.57-.141.781-.091.209-.365.314-.822.314-.357 0-.604-.105-.74-.314-.136-.21-.204-.472-.204-.78v-.228c0-.154.002-.332.009-.536.006-.205.009-.388.009-.549a119.589 119.589 0 0 0 .041-3.07c0-.726-.004-1.452-.009-2.179-.007-.728-.017-1.507-.032-2.334 0-.32-.013-.672-.036-1.053a16.676 16.676 0 0 1-.037-1.09c0-.283.042-.537.127-.758.088-.224.342-.341.763-.354h.055c.369 0 .669.017.903.05.236.03.423.212.559.545.036.097.118.329.245.695.129.363.284.816.463 1.357l.586 1.757.626 1.875c.211.625.41 1.195.595 1.712.06.149.141.223.241.223.12 0 .181-.092.181-.277 0-.702-.009-1.463-.027-2.284-.018-.82-.034-1.619-.045-2.398 0-.32-.013-.672-.037-1.053a16.651 16.651 0 0 1-.036-1.09c0-.296.042-.555.127-.776.088-.224.359-.336.813-.336.493 0 .796.086.908.259.111.172.168.383.168.63 0 .371-.014.768-.041 1.195-.025.425-.036.815-.036 1.171l-.036 3.606v2.184Z"/>
  <path fill="#721772" fill-rule="evenodd" stroke="#721772" stroke-miterlimit="2.613" stroke-width=".736" d="M131.293 7.358c-.067 2.716.574 6.061 1.435 8.368.465 1.25 1.094 2.368 1.757 3.148.206.242.344.339.542.588.241.302.308.417.588.672.544.497.678.94 1.198 1.28.746-.277 1.611-.868 2.359-1.255.422-.219.76-.426 1.138-.624.247-.128.363-.188.57-.311.091-.055.258-.155.311-.19l.154-.109c.021-.014.059-.045.076-.058a.846.846 0 0 0 .077-.059c-.67-.704-2.72-2.107-3.302-3.982.762.383 2.832 2.205 3.59 2.913 1.048.98 2.505 1.836 3.613 2.804 2.463 2.152 4.88 9.404 6.067 13.188.476 1.518.645 4.037 2.586 3.843 1.619-.161 2.606-1.949 2.821-3.636.263-2.055-.132-3.755-.642-5.604-.793-2.875-2.939-7.252-2.126-10.36.469-1.793.819-1.94 1.778-3.001 1.203-1.334 3.856-2.298 6.145-1.735 2.475.61 2.8 1.558 3.801 2.609l1.507 1.636c.702.78 1.505 1.786 2.311 2.47.883.751.634 1.762.889 4.034a72.96 72.96 0 0 0 .383 2.89c.223 1.463-2.028 8.855 1.307 10.517.903.45 1.83.345 2.435-.247 1.135-1.11 1.716-8.784 1.837-10.965.114-2.08.231-4.158.283-6.24.047-1.845-.884-2.848-2.016-4.474l-5.139-7.823c-2.038-3.39-2.593-5.848-6.757-6.077-4.066-.222-8.26-.382-12.335-.536-4.375-.167-7.126.313-10.807 1.807-1.423.577-2.897 1.468-4.244 2.177-1.423.746-2.86 1.683-4.19 2.342Z" clip-rule="evenodd"/>
  <path fill="#721772" fill-rule="evenodd" stroke="#721772" stroke-miterlimit="2.613" stroke-width=".736" d="M160.244 78.819c.168-.292 1.971-1.365 2.341-1.648.834-.635 1.465-1.03 1.865-2.143.8.141 2.474.731 2.89 1.228l.005 2.532-7.101.03Zm-8.517-5.83.788-.017.833 5.81-2.387-.002.766-5.791Zm-13.174 5.749c-.171-.543.397-.754.781-1.148 1.422-1.46 1.471-2.782 1.681-4.372.913 1.989.687 3.33.782 5.58l-3.244-.06Zm7.181-18.146c.253.349.441.849.751 1.282 1.75 2.441 2.243 2.018 3.713 2.628l-2.035 8.447 1.368.035c.01 1.157.322 4.991.086 5.803-8.809.011-6.109.98-6.122-3.596-.003-1.293-.273-2.289-.585-3.454-.584-2.173-.273-.914-.005-1.536.215-.5-.554-3.564-.559-5.241 1.006-.286 1.946-1.133 2.431-1.817 1.033-1.462.336-2.207.499-3.52-.44-.533-.278-1.022-1.182-.936-.653 1.26.807 2.336-.916 3.982-1.399 1.336-3.257.669-4.111.924-2.483.745-5.203 4.9-4.438 5.97.893.7 1.335-.912 1.824-1.654.606-.92 1.073-1.452 1.878-2.01l-.358 4.635.522.252c.226 2.694.875 4.066-.807 6.281-.61.804-.791.715-.747 1.735-.842-.015-4.013-.181-4.499.205-.486.385-.327 1.21.278 1.41.689.227 10.052.054 11.269.055l36.247-.002c2.177.006 4.645.133 6.802.008.703-.04 1.199-.486.929-1.177-.374-.954-3.084-.51-4.082-.513-1.499-.006-3.01-.02-4.51.014.098-.57.333-.234.302-.927-.04-.899-.555-2.34-.702-3.34 1.029-.093 1.744-.313 2.644-.6.291.314.604.558.893.867.345.37 1.652 1.351 1.748 1.672.181.62-.188.85.506 1.102.15 0 1.319-.832-.01-2.247-.543-.576-1.147-1.255-1.549-2.025.947-.936 1.735-.894 2.709-2.644-.499-.343-5.45-.911-5.306-6.885.949.294 5.066 1.636 5.627.215-.2-.703-.96-.58-1.744-.721-2.048-.368-3.305-1.365-5.013-2.158-.31.144-.545.333-.89.477-1.629.672-1.051-.323-2.544 1.615-.495.642-.665.886-1.271 1.492-.318.318-.459.352-.773.618-.355.3-.333.355-.778.543l.005-27.69-.545.046c-.526 1.75.135 21.988-.068 27.424-.041 1.12-.516.603-.276 1.475 1.072.558 2.934-.836 3.678-1.545.183-.175.269-.261.447-.428l.565-.469c-.239 4.423-4.047 6.996-4.455 8.005 1.489 1.383 2.608 1.45 4.835 1.951.242 1.272 1.08 2.546 1.207 3.335-.624.953-.507.796-1.904.814l-8.011.002c-.169-.73.301-1.84.385-2.642.121-1.166-.442-1.405-.952-1.95l-.182-3.963c1.467.826 4.761.084 4.34-1.31-.948-.418-2.293 1.064-4.48-.808-.667-.57-.589-.151-1.528-.345-.695-.144-.856-.619-1.446-.43-1.628.52-1.906 1.497-4.595 1.154-.384-1.174-.071-23.837-.09-28.279-.006-1.537.205-8.27-.056-9.208l-.378.01c-.23.28-.174.723-.171 1.142.043 4.54.137 35.275-.044 36.072-.125.55-.25.125-.252.815.731.94 2.758 1.1 4.301.853l-1.712 4.046c.361.557.503-.074.25.59-.412 1.077-1.594 2.38-2.51 3.047-.731.53-.639.244-.958 1.203l-4.056.025.189-5.803 1.372-.031c-.415-2.848-1.748-6.273-1.946-9.1.523-.388 1.022-.564 1.507-1.01.74-.68 2.984-4.163 2.061-4.936-.934-.494-1.182 1.005-1.585 1.763-1.47 2.757-4.879 3.703-7.035 2.692-.575-.27-1.424-1.153-1.791-1.606-.654-.805-.547-1.719-.528-2.944.151-9.098.015-18.21.016-27.31.001-1.133.005-2.265 0-3.398-.004-.873.307-2.385-.449-2.944-.202.309-.172.792-.167 1.18l-.01 33.984c-.103.862-.604-.084-.469 1.257h.001Zm24.315-54.474c.584 1.29 4.774 7.708 5.758 9.06 1.839 2.525.619 1.003 2.831 2.206 3.469 1.888 5.625 5.475 8.042 6.937 1.086.657 2.769.867 3.792.068 1.717-1.342-1.163-3.877-2.814-5.96l-4.589-5.345c-1.564-1.712-3.713-2.222-6.325-3.622-1.058-.566-2.19-1.044-3.35-1.683-.708-.39-2.713-1.538-3.345-1.661Z" clip-rule="evenodd"/>
  <path fill="#721772" fill-rule="evenodd" stroke="#721772" stroke-miterlimit="2.613" stroke-width=".736" d="M163.783 14.993c-.471-.33-1.617-.809-2.289-.844.357 2.176.17 3.814-.491 5.689-.704 2-.815 2.814-1.931 4.363-3.005 4.172-.008 8.384 2.386 4.272 6.788-11.66 6.143-8.742 3.745-11.744-.366-.459-1.016-1.453-1.42-1.737v.001Zm2.528 48.02c-.031.015-.064.028-.096.042-2.75 1.234-1.427 4.488.661 4.425 2.137-.064 3.621-3.35.325-4.54l.017-41.913c-.975.662-.582.712-.622 2.187-.024.88-.017 1.762-.011 2.643l.003 26.43c-.027 3.43-.115 7.166.016 10.57l-.292.156h-.001Zm-26.392-4.478c-.836.34-1.993.656-1.994 2.31-.002 2.947 4.24 3.198 4.66.353.235-1.592-.976-2.208-1.848-2.676l.017-37.137c-.63.103-.635.015-.662.681l.04 27.074c-.027 2.989.162 6.386-.034 9.313l-.179.082Zm39.055-1.903c.175.395-.001.102.333.358 1.425 1.096.615 1.782 1.32 2.963.834 1.395 2.959 1.176 2.571-.448-.287.328-.094.533-.659.44-1.105-.182-.049-1.956-.588-2.955-.511-.946-.785-.248-.777-1.806.058-11.051-.06-22.207.039-33.23.009-.98.255-1.375-.606-1.698l-.026 33.163c.006 3.166.12 2.315-.806 2.681-.387.154-.538.29-.801.532Zm-25.54 1.471c-.806-.34-2.405-1.125-3.464.288-.96 1.282-.355 2.619.577 3.321 1.64 1.239 4.15-.216 3.516-2.646-.125-.479-.028-10.405-.032-11.562l.031-8.324c-.015-.666.064-.575-.508-.639-.237.392-.131 1.714-.128 2.418l.008 17.144Z" clip-rule="evenodd"/>
  <path fill="#721772" fill-rule="evenodd" stroke="#721772" stroke-miterlimit="2.613" stroke-width=".736" d="M179.753 59.837c.538-1.292-.344-2.73-1.35-3.08-1.482-.515-2.613.462-2.976 1.42-1.041 2.759 3.031 4.774 4.326 1.66Zm-17.863 5.179c-.122 1.76 1.686 1.637 2.268.52.257-.493.295-1.164.579-1.689.33-.608.674-.59 1.101-.959-.421-.722-1.475-1.159-2.335-.274-1.025 1.055-.002 1.862-.888 2.775-.742-.026-.252-.08-.725-.373Z" clip-rule="evenodd"/>
</svg>


<style>
    [data-theme="dark"] .docs-logo-svg {
      fill: #d4d4d4;
    }
</style>
</svg>
