<svg xmlns="http://www.w3.org/2000/svg" width="206" height="70" fill="none" viewBox="0 0 206 70">
  <path fill="#0D72FF" d="M16.449 44.558c-2.248 2.303-5.747-1.108-3.5-3.416 2.246-2.303 5.745 1.113 3.5 3.416Zm51.042-3.132A32.71 32.71 0 0 1 61.638 54.3c1.965 2.27-.936 5.523-3.416 3.876a33.009 33.009 0 0 1-8.389 5.923c1.02 4.21-4.94 6.284-6.81 2.434a32.69 32.69 0 0 1-7.156.931c-1.258 3.052-5.774 2.655-6.513-.53a33.999 33.999 0 0 1-9.419-3.232c-2.808 2.32-6.905-.397-5.79-3.871a33.046 33.046 0 0 1-8.49-10.836c-3.682.678-5.58-4.368-2.315-6.262a32.609 32.609 0 0 1-.937-10.78c-3.82-1.178-2.858-7.094 1.283-6.852A32.749 32.749 0 0 1 14.43 9.009c-2.152-4.203 3.303-8.382 6.777-4.996.171.163.314.339.452.522a32.72 32.72 0 0 1 17.105-2.743c1.113-2.92 5.506-2.06 5.444 1.055A32.245 32.245 0 0 1 48.85 4.54c1.497-1.59 4.079-.143 3.594 1.902.854.522 1.698 1.1 2.522 1.718a33.204 33.204 0 0 1 5.355 5.008c1.713-.653 3.336 1.404 2.228 2.914a32.843 32.843 0 0 1 2.909 5.267c2.856-.422 4.26 3.511 1.71 4.96a33.148 33.148 0 0 1 1.04 8.307c3.921.9 3.303 6.752-.718 6.81Zm-8.224-25.683a47.85 47.85 0 0 0-3.896.66 4.295 4.295 0 0 1-.208 1.781 48.334 48.334 0 0 1 8.477 4.31l.686-.685c-.44-1-.932-1.982-1.467-2.932a30.414 30.414 0 0 0-1.296-2.09c-.882.264-1.906-.175-2.296-1.044ZM32.522 30.437a48.558 48.558 0 0 1 11.037 5.669c.145-.126.3-.231.46-.32a47.253 47.253 0 0 0-5.368-10.504 2.22 2.22 0 0 1-2.153-.213 48.136 48.136 0 0 0-4.355 3.758c.303.49.429 1.057.379 1.61ZM46.982 15.8a4.04 4.04 0 0 1 .314-.869 47.28 47.28 0 0 0-11.71-5.38 47.83 47.83 0 0 0-2.474 3.65 3.205 3.205 0 0 1 1.253 1.748 49.343 49.343 0 0 1 12.617.851Zm-.12 1.183a47.522 47.522 0 0 0-12.379-.851 3.377 3.377 0 0 1-.54 1.58 48.94 48.94 0 0 1 3.095 3.436c.769-.264 1.675-.1 2.286.518a48.979 48.979 0 0 1 7.638-3.921 4.51 4.51 0 0 1-.1-.762Zm-18.834 0A47.325 47.325 0 0 0 6.743 27.264c.154.36.241.744.259 1.128a48.825 48.825 0 0 1 20.622.573 2.613 2.613 0 0 1 3.69-.974 48.314 48.314 0 0 1 4.428-3.829 2.207 2.207 0 0 1 .321-2.328 47.58 47.58 0 0 0-2.938-3.26c-1.761 1.278-4.381.454-5.097-1.59Zm17.123 18.445c.414-.046.831.005 1.233.138a47.522 47.522 0 0 0 4.08-14.544 4.361 4.361 0 0 1-3.08-2.17 46.791 46.791 0 0 0-7.462 3.838 2.252 2.252 0 0 1-.34 1.844 48.565 48.565 0 0 1 5.569 10.894Zm2.258.743c.284.256.505.56.66.88a47.474 47.474 0 0 0 6.333-3.329 47.798 47.798 0 0 0-2.48-12.725c-.087.02-.175.033-.263.046a48.716 48.716 0 0 1-4.25 15.128Zm.66 3.441a49.453 49.453 0 0 1 5.1 5.167 1.73 1.73 0 0 1 .597-.138c.553-3.165.782-6.37.691-9.56a48.19 48.19 0 0 1-6.096 3.135c.018.477-.075.957-.291 1.396Zm7.47-6.62a46.647 46.647 0 0 0 5.697-4.47 48.328 48.328 0 0 0-7.306-8.494 4.26 4.26 0 0 1-.887.598A49.107 49.107 0 0 1 55.54 32.99Zm6.572-5.293a41.935 41.935 0 0 0 1.843-1.874c-.547-.573-.861-1.374-.743-2.21a46.74 46.74 0 0 0-8.231-4.235 49.875 49.875 0 0 1 7.13 8.319ZM51.343 7.839c.25 1.587.43 3.176.522 4.769 1.41.246 2.7 1.291 3.228 2.645a48.324 48.324 0 0 1 4.041-.686c.043-.22.133-.442.259-.638a31.69 31.69 0 0 0-7.533-6.455 1.99 1.99 0 0 1-.517.364Zm-7.651-3.417a48.634 48.634 0 0 1 5.895 8.415 4.033 4.033 0 0 1 1.095-.267 47.294 47.294 0 0 0-.502-4.523c-1.178-.126-2.04-1.284-1.844-2.442A31.842 31.842 0 0 0 43.943 4a3.734 3.734 0 0 1-.251.422ZM36.36 8.55a48.789 48.789 0 0 1 11.61 5.4l.592-.54a47.379 47.379 0 0 0-5.734-8.188c-1.088.635-2.392.41-3.258-.334L36.36 8.55ZM22.23 5.598c.088.24.15.484.196.736a48.83 48.83 0 0 1 12.712 1.858l3.695-4.255a2.677 2.677 0 0 1-.246-.962A31.78 31.78 0 0 0 22.23 5.598Zm-.15 3.298a48.553 48.553 0 0 1 6.917 4.448c.879-.754 2.024-.93 3.039-.648a48.259 48.259 0 0 1 2.333-3.491 47.533 47.533 0 0 0-11.905-1.688 4.157 4.157 0 0 1-.385 1.379ZM4.881 25.383l1.22.877A48.483 48.483 0 0 1 27.84 15.813c.012-.535.15-1.07.414-1.55a46.49 46.49 0 0 0-6.827-4.373 4.275 4.275 0 0 1-6.287.12C10.287 14 6.613 19.619 4.882 25.384Zm22.95 6.362a2.65 2.65 0 0 1-.515-1.642 47.775 47.775 0 0 0-20.458-.485c-.447 1.504-1.839 2.431-3.28 2.487A31.58 31.58 0 0 0 4.46 42.33c3.645-.628 5.518 4.33 2.308 6.244a31.834 31.834 0 0 0 7.93 10.175 3.57 3.57 0 0 1 2.178-1.391 48.482 48.482 0 0 1 10.956-25.613ZM21.03 59.694c9.143-3.687 17.324-10.53 22.624-19.062a2.94 2.94 0 0 1-.826-3.587 47.16 47.16 0 0 0-10.69-5.48c-.711 1.15-2.236 1.547-3.406.949a47.32 47.32 0 0 0-10.666 24.801c1.314.163 2.517 1.12 2.964 2.379Zm24.606-18.452a2.844 2.844 0 0 1-.912-.088c-5.476 8.867-13.97 15.948-23.48 19.728a3.519 3.519 0 0 1-.518 1.894 32.38 32.38 0 0 0 8.56 2.939c.548-4.273 6.978-3.75 6.828.56a31.754 31.754 0 0 0 6.576-.874c-.206-1.894 1.127-3.838 3.247-4.052a47.811 47.811 0 0 0-.301-20.107Zm1.71 20.245a47.343 47.343 0 0 0 5.64-13.217c-.97-.522-1.297-1.806-.724-2.723a47.053 47.053 0 0 0-4.92-4.99c-.176.15-.365.276-.568.384a48.988 48.988 0 0 1 .359 20.496.8.8 0 0 1 .213.05Zm10.655-7.49a47.486 47.486 0 0 0-3.494-5.594c-.118.038-.238.07-.356.083a48.472 48.472 0 0 1-5.735 13.529l.92.97a31.93 31.93 0 0 0 8.055-5.695 2.62 2.62 0 0 1 .61-3.293Zm8.277-12.775c-2.354-.841-3.067-4.039-1.166-5.782a46.67 46.67 0 0 0-3.215-5.91 48.522 48.522 0 0 1-6.282 4.833 48.616 48.616 0 0 1-.698 10.567c.952.585 1.203 1.894.547 2.78a48.615 48.615 0 0 1 3.595 5.765 2.62 2.62 0 0 1 1.58.12c2.65-3.531 4.661-7.872 5.639-12.373Zm.715-6.663c0-2.7-.339-5.348-.994-7.905a2.504 2.504 0 0 1-1.045-.163 47.688 47.688 0 0 1-2.175 2.215 47.908 47.908 0 0 1 3.34 6.091c.284-.118.578-.2.874-.238Zm-5.965 8.962c-1.63-.455-2.316 2.032-.686 2.484 1.623.454 2.316-2.032.686-2.485Zm-24.563-1.498c2.103.332 2.612-2.87.51-3.205-2.1-.331-2.61 2.871-.51 3.206Zm.292 13.504c-2.663-.736-3.79 3.323-1.12 4.059 2.662.736 3.782-3.323 1.12-4.06Zm-12.499-34.53c-2.24-.623-3.19 2.801-.944 3.424 2.24.615 3.184-2.806.944-3.424Zm69.592.22-.885-2.39h-5.013l-.864 2.39h-2.874l4.923-12.579h2.572l5.084 12.58H93.85Zm-3.397-9.253-1.637 4.491H92.1l-1.648-4.491Zm16.624-3.326v2.532h-3.507v10.047h-2.733V11.17h-3.486V8.638h9.726Zm10.499 0v2.532h-3.507v10.047h-2.733V11.17h-3.486V8.638h9.726ZM94.17 26.84v2.533h-3.506V39.42h-2.733V29.373h-3.486V26.84h9.725Zm11.06 7.688c0 .256-.02.512-.06.773h-7.335c.106.663.372 1.173.794 1.527.422.35.95.523 1.587.523.455 0 .86-.096 1.216-.292.362-.2.636-.474.824-.823h2.773c-.362 1.06-.975 1.898-1.839 2.521-.859.623-1.848.935-2.974.935-.964 0-1.828-.226-2.592-.673a4.845 4.845 0 0 1-1.788-1.83c-.437-.775-.653-1.65-.653-2.621 0-.97.216-1.841.653-2.613a4.854 4.854 0 0 1 1.788-1.838c.764-.447 1.628-.673 2.592-.673.99 0 1.862.23 2.613.693a4.897 4.897 0 0 1 1.768 1.848c.422.764.633 1.613.633 2.543Zm-5.014-2.854c-.59 0-1.085.166-1.486.492-.402.322-.674.769-.814 1.337h4.682c-.382-1.219-1.176-1.829-2.382-1.829Zm11.391 8.018c-.972 0-1.846-.229-2.622-.684a4.973 4.973 0 0 1-1.839-1.848c-.45-.784-.673-1.66-.673-2.632 0-.97.223-1.84.673-2.603a4.876 4.876 0 0 1 1.839-1.818c.776-.442 1.657-.663 2.642-.663.837 0 1.6.165 2.291.492a4.708 4.708 0 0 1 1.728 1.396c.462.598.769 1.291.924 2.08h-2.602a2.541 2.541 0 0 0-.954-1.105 2.53 2.53 0 0 0-1.407-.402c-.47 0-.892.118-1.266.352a2.58 2.58 0 0 0-.894.944 2.765 2.765 0 0 0-.322 1.346c0 .503.106.955.322 1.357.221.402.517.723.894.964.374.242.796.362 1.266.362.543 0 1.015-.14 1.417-.422.402-.281.715-.686.944-1.216h2.642a5.13 5.13 0 0 1-.944 2.15 4.75 4.75 0 0 1-1.738 1.437c-.698.342-1.472.513-2.321.513Zm12.279-10.208c1.106 0 1.972.366 2.603 1.095.635.73.954 1.713.954 2.944v5.897h-2.622v-5.465c0-.716-.136-1.256-.402-1.618-.261-.367-.691-.553-1.286-.553-.651 0-1.176.227-1.578.674-.401.45-.602 1.07-.602 1.858v5.104h-2.623V26.208h2.623v4.4a4.29 4.29 0 0 1 1.316-.813 4.215 4.215 0 0 1 1.617-.311Zm11.503 0c1.105 0 1.974.369 2.612 1.105.643.738.965 1.723.965 2.954v5.877h-2.623v-5.465c0-1.447-.562-2.17-1.687-2.17-.671 0-1.204.228-1.598.683-.389.457-.583 1.072-.583 1.848v5.104h-2.622v-9.705h1.798l.523 1.205a3.784 3.784 0 0 1 1.386-1.045 4.287 4.287 0 0 1 1.829-.391Zm10.608 10.208c-1.005 0-1.904-.226-2.693-.673a4.971 4.971 0 0 1-1.869-1.83c-.457-.775-.683-1.65-.683-2.621 0-.985.226-1.862.683-2.633a4.9 4.9 0 0 1 1.869-1.828c.789-.442 1.688-.663 2.693-.663.989 0 1.881.22 2.672.663a4.898 4.898 0 0 1 1.879 1.828c.455.771.683 1.648.683 2.633 0 .972-.228 1.846-.683 2.622a4.97 4.97 0 0 1-1.879 1.829c-.791.447-1.683.673-2.672.673Zm0-2.462c.756 0 1.371-.243 1.848-.733.483-.495.724-1.138.724-1.93 0-.788-.241-1.429-.724-1.918-.477-.495-1.092-.744-1.848-.744-.764 0-1.387.249-1.869.744-.482.49-.723 1.13-.723 1.919 0 .79.241 1.434.723 1.929.482.49 1.105.733 1.869.733Zm7.117 2.19V26.208h2.623V39.42h-2.623Zm9.763.272c-1.005 0-1.904-.226-2.693-.673a4.961 4.961 0 0 1-1.868-1.83c-.458-.775-.684-1.65-.684-2.621 0-.985.226-1.862.684-2.633a4.89 4.89 0 0 1 1.868-1.828c.789-.442 1.688-.663 2.693-.663.99 0 1.881.22 2.672.663a4.898 4.898 0 0 1 1.879 1.828c.455.771.683 1.648.683 2.633 0 .972-.228 1.846-.683 2.622a4.97 4.97 0 0 1-1.879 1.829c-.791.447-1.682.673-2.672.673Zm0-2.462c.756 0 1.371-.243 1.849-.733.482-.495.723-1.138.723-1.93 0-.788-.241-1.429-.723-1.918-.478-.495-1.093-.744-1.849-.744-.764 0-1.387.249-1.869.744-.482.49-.723 1.13-.723 1.919 0 .79.241 1.434.723 1.929.482.49 1.105.733 1.869.733Zm14.953-7.515h1.708v8.57c0 1.02-.201 1.892-.603 2.622a4.134 4.134 0 0 1-1.718 1.698c-.744.395-1.625.593-2.643.593-1.313 0-2.411-.319-3.295-.954-.879-.638-1.427-1.507-1.648-2.613h2.612c.141.435.435.764.885.985.447.221.914.332 1.396.332.668 0 1.241-.201 1.718-.603.475-.402.713-.96.713-1.678v-.362c-.389.276-.818.49-1.286.643a4.847 4.847 0 0 1-1.487.221c-.899 0-1.713-.213-2.441-.643a4.85 4.85 0 0 1-1.738-1.748c-.422-.728-.633-1.55-.633-2.462 0-.909.211-1.733.633-2.471a4.773 4.773 0 0 1 1.738-1.748c.728-.435 1.542-.653 2.441-.653a4.725 4.725 0 0 1 3.236 1.245l.412-.974Zm-3.346 7.113c.723 0 1.316-.233 1.778-.703.467-.475.704-1.078.704-1.809 0-.715-.232-1.31-.694-1.788-.457-.475-1.052-.713-1.788-.713-.703 0-1.291.238-1.758.713-.47.477-.704 1.073-.704 1.788 0 .731.231 1.334.694 1.809.462.47 1.049.703 1.768.703Zm7.571-8.41v-2.441h2.622v2.441h-2.622Zm0 11.002v-9.706h2.622v9.706h-2.622Zm14.565-4.892c0 .256-.02.512-.06.773h-7.335c.106.663.372 1.173.794 1.527.422.35.949.523 1.587.523a2.48 2.48 0 0 0 1.216-.292c.362-.2.636-.474.824-.823h2.773c-.362 1.06-.975 1.898-1.839 2.521-.859.623-1.848.935-2.974.935-.964 0-1.828-.226-2.592-.673a4.844 4.844 0 0 1-1.788-1.83c-.437-.775-.653-1.65-.653-2.621 0-.97.216-1.841.653-2.613a4.853 4.853 0 0 1 1.788-1.838c.764-.447 1.628-.673 2.592-.673.99 0 1.862.23 2.613.693a4.897 4.897 0 0 1 1.768 1.848c.422.764.633 1.613.633 2.543Zm-5.014-2.854c-.59 0-1.085.166-1.487.492-.401.322-.673.769-.813 1.337h4.682c-.382-1.219-1.176-1.829-2.382-1.829Zm10.335 8.018c-.819 0-1.532-.146-2.14-.432a3.379 3.379 0 0 1-1.427-1.216c-.341-.522-.512-1.128-.512-1.819h2.552c.005.43.161.751.462.965.302.216.686.322 1.156.322.366 0 .688-.08.964-.242a.787.787 0 0 0 .412-.723c0-.334-.186-.568-.553-.703a6.848 6.848 0 0 0-1.316-.342c-.381-.06-.781-.143-1.195-.251a4.489 4.489 0 0 1-1.136-.462 2.474 2.474 0 0 1-.854-.844c-.221-.362-.331-.83-.331-1.407 0-.608.163-1.148.492-1.617.327-.468.784-.83 1.367-1.086.582-.26 1.268-.391 2.059-.391.776 0 1.457.138 2.04.412.582.268 1.035.648 1.356 1.135.322.482.482 1.045.482 1.688h-2.501c0-.382-.128-.666-.382-.854-.256-.194-.611-.292-1.065-.292-.41 0-.729.088-.955.262a.813.813 0 0 0-.341.673c0 .321.176.542.532.663.362.12.794.22 1.296.301.395.076.799.161 1.216.261a4.47 4.47 0 0 1 1.176.463c.361.2.653.482.874.844.221.361.331.834.331 1.416 0 .663-.168 1.241-.502 1.728-.337.49-.811.872-1.427 1.146-.61.266-1.321.402-2.13.402ZM85.49 57.622v-12.58h2.732v12.58H85.49Zm13.586-12.579h2.663v12.579h-2.261l-5.697-7.857v7.857H91.1v-12.58h2.461l5.516 7.677v-7.676Zm11.307 12.851a6.711 6.711 0 0 1-2.572-.492 6.41 6.41 0 0 1-2.07-1.387 6.32 6.32 0 0 1-1.356-2.09 6.792 6.792 0 0 1-.482-2.572c0-.937.16-1.808.482-2.612.321-.804.773-1.5 1.356-2.09a6.253 6.253 0 0 1 2.07-1.386 6.71 6.71 0 0 1 2.572-.492c1.017 0 1.952.21 2.803.632a5.973 5.973 0 0 1 2.14 1.759c.575.758.96 1.632 1.156 2.622h-2.733c-.256-.744-.683-1.331-1.286-1.768-.598-.442-1.291-.663-2.08-.663-.703 0-1.336.178-1.899.532a3.914 3.914 0 0 0-1.346 1.437c-.329.598-.493 1.273-.493 2.03 0 .75.164 1.424.493 2.019.334.59.783 1.06 1.346 1.406a3.53 3.53 0 0 0 1.899.523c.829 0 1.542-.231 2.14-.693.603-.468 1.017-1.106 1.246-1.91h2.743c-.189 1.04-.568 1.95-1.136 2.733a5.951 5.951 0 0 1-2.14 1.819c-.859.427-1.808.643-2.853.643Z"/>
  <path stroke="#0D72FF" stroke-width="3" d="M78.749 63.522V5.869"/>
</svg>



<style>
    [data-theme="dark"] .docs-logo-svg {
      fill: #d4d4d4;
    }
</style>
</svg>
